<?xml version="1.0" encoding="UTF-8"?>
<svg xmlns="http://www.w3.org/2000/svg" width="800" height="800" viewBox="0 0 800 800" fill="none">
  <title>Clutch C Logo</title>
  <desc>Vector recreation of the Clutch C logo based on the provided reference image.</desc>
  <path d="M 387 26 L 386 27 L 385 27 L 384 27 L 383 27 L 382 27 L 381 27 L 380 27 L 379 27 L 378 27 L 377 27 L 376 28 L 375 27 L 374 28 L 373 28 L 372 28 L 371 28 L 370 28 L 369 28 L 368 28 L 367 28 L 366 28 L 365 29 L 364 28 L 363 29 L 362 29 L 361 29 L 360 29 L 359 29 L 358 29 L 357 30 L 356 30 L 355 30 L 354 30 L 353 30 L 352 30 L 351 30 L 350 31 L 349 31 L 348 31 L 347 31 L 346 31 L 345 31 L 344 32 L 343 32 L 342 32 L 341 32 L 340 32 L 339 32 L 338 33 L 337 33 L 336 33 L 335 33 L 334 33 L 333 34 L 332 34 L 331 34 L 330 34 L 329 34 L 328 34 L 327 35 L 326 34 L 325 35 L 324 35 L 323 36 L 322 36 L 321 36 L 320 36 L 319 36 L 318 37 L 317 37 L 316 37 L 315 37 L 314 38 L 313 38 L 312 38 L 311 39 L 310 39 L 309 39 L 308 39 L 307 40 L 306 40 L 305 40 L 304 40 L 303 41 L 302 41 L 301 41 L 300 41 L 299 42 L 298 42 L 297 42 L 296 43 L 295 43 L 294 43 L 293 43 L 292 44 L 291 44 L 290 44 L 289 45 L 288 45 L 287 45 L 286 46 L 285 46 L 284 46 L 283 46 L 282 47 L 281 47 L 280 48 L 279 48 L 278 48 L 277 49 L 276 49 L 275 49 L 274 50 L 273 50 L 272 50 L 271 51 L 270 51 L 269 51 L 268 52 L 267 52 L 266 52 L 265 53 L 264 53 L 263 54 L 262 54 L 261 55 L 260 55 L 259 56 L 258 56 L 257 56 L 256 57 L 255 57 L 254 58 L 253 58 L 252 59 L 251 59 L 250 59 L 249 60 L 248 60 L 247 61 L 246 61 L 245 62 L 244 62 L 243 63 L 242 63 L 241 64 L 240 64 L 239 65 L 238 65 L 237 66 L 236 66 L 235 67 L 234 67 L 233 68 L 232 68 L 231 69 L 230 69 L 229 70 L 228 70 L 227 71 L 226 71 L 225 72 L 224 72 L 223 73 L 222 73 L 221 74 L 220 75 L 219 75 L 218 76 L 217 76 L 216 77 L 215 77 L 214 78 L 213 79 L 212 79 L 211 80 L 210 80 L 209 81 L 208 81 L 207 82 L 206 83 L 205 84 L 204 84 L 203 85 L 202 85 L 201 86 L 200 87 L 199 87 L 198 88 L 197 89 L 196 89 L 195 90 L 194 91 L 193 91 L 192 92 L 191 93 L 190 93 L 189 94 L 188 95 L 187 96 L 186 96 L 185 97 L 184 98 L 183 98 L 182 99 L 181 100 L 180 101 L 179 101 L 178 102 L 177 103 L 176 104 L 175 104 L 174 105 L 173 106 L 172 107 L 171 107 L 170 108 L 169 109 L 168 110 L 167 111 L 166 112 L 165 113 L 164 114 L 163 114 L 162 115 L 161 116 L 160 117 L 159 117 L 159 118 L 158 119 L 157 120 L 156 121 L 155 121 L 154 122 L 153 123 L 152 124 L 151 125 L 150 126 L 149 127 L 148 128 L 147 129 L 146 130 L 145 131 L 144 132 L 143 133 L 142 134 L 141 135 L 140 136 L 139 137 L 138 138 L 137 139 L 136 140 L 135 141 L 134 142 L 133 143 L 132 144 L 132 145 L 131 146 L 130 146 L 130 147 L 129 148 L 128 148 L 128 149 L 127 150 L 126 151 L 125 152 L 125 153 L 124 154 L 123 155 L 122 156 L 121 157 L 120 158 L 120 159 L 119 160 L 118 160 L 118 161 L 117 162 L 116 163 L 115 163 L 116 164 L 115 165 L 114 166 L 113 167 L 113 168 L 112 169 L 111 170 L 110 171 L 110 172 L 109 173 L 108 174 L 108 175 L 107 176 L 106 177 L 105 178 L 105 179 L 104 180 L 103 181 L 102 182 L 102 183 L 101 184 L 100 185 L 100 186 L 99 187 L 99 188 L 98 189 L 97 190 L 97 191 L 96 192 L 95 193 L 95 194 L 94 195 L 94 196 L 93 197 L 92 198 L 92 199 L 91 200 L 90 201 L 90 202 L 89 203 L 88 204 L 88 205 L 88 206 L 87 207 L 86 208 L 86 209 L 85 210 L 85 211 L 84 212 L 84 213 L 83 214 L 83 215 L 82 216 L 81 216 L 82 217 L 81 218 L 81 219 L 80 220 L 80 221 L 79 222 L 78 223 L 78 224 L 78 225 L 77 226 L 77 227 L 76 228 L 76 229 L 75 230 L 74 231 L 74 232 L 74 233 L 73 234 L 73 235 L 72 236 L 72 237 L 72 238 L 71 239 L 70 239 L 71 240 L 70 241 L 70 242 L 69 243 L 69 244 L 69 245 L 68 246 L 67 246 L 68 247 L 67 248 L 67 249 L 66 250 L 66 251 L 65 252 L 65 253 L 65 254 L 65 255 L 64 256 L 64 257 L 63 258 L 63 259 L 63 260 L 62 261 L 62 262 L 61 263 L 61 264 L 61 265 L 60 266 L 60 267 L 60 268 L 60 269 L 59 270 L 59 271 L 59 272 L 58 273 L 58 274 L 58 275 L 57 276 L 57 277 L 57 278 L 56 279 L 56 280 L 56 281 L 55 282 L 55 283 L 55 284 L 54 285 L 54 286 L 54 287 L 54 288 L 53 289 L 53 290 L 53 291 L 52 292 L 52 293 L 52 294 L 52 295 L 51 296 L 51 297 L 51 298 L 51 299 L 50 300 L 50 301 L 50 302 L 49 303 L 50 304 L 49 305 L 49 306 L 49 307 L 49 308 L 48 309 L 48 310 L 48 311 L 48 312 L 48 313 L 47 314 L 47 315 L 47 316 L 47 317 L 47 318 L 46 319 L 46 320 L 46 321 L 46 322 L 46 323 L 45 324 L 45 325 L 45 326 L 45 327 L 45 328 L 44 329 L 44 330 L 44 331 L 44 332 L 44 333 L 44 334 L 44 335 L 43 336 L 43 337 L 43 338 L 43 339 L 43 340 L 43 341 L 43 342 L 42 343 L 42 344 L 42 345 L 42 346 L 42 347 L 42 348 L 41 349 L 42 350 L 42 351 L 41 352 L 41 353 L 41 354 L 41 355 L 41 356 L 41 357 L 41 358 L 41 359 L 41 360 L 41 361 L 40 362 L 40 363 L 40 364 L 40 365 L 40 366 L 40 367 L 40 368 L 40 369 L 40 370 L 40 371 L 40 372 L 40 373 L 40 374 L 40 375 L 39 376 L 39 377 L 39 378 L 39 379 L 39 380 L 39 381 L 39 382 L 39 383 L 39 384 L 39 385 L 39 386 L 39 387 L 39 388 L 39 389 L 39 390 L 39 391 L 39 392 L 39 393 L 39 394 L 39 395 L 39 396 L 39 397 L 39 398 L 39 399 L 39 400 L 39 401 L 39 402 L 39 403 L 40 404 L 40 405 L 40 406 L 40 407 L 40 408 L 40 409 L 40 410 L 40 411 L 39 412 L 40 413 L 40 414 L 40 415 L 40 416 L 40 417 L 40 418 L 40 419 L 40 420 L 40 421 L 40 422 L 40 423 L 40 424 L 40 425 L 40 426 L 40 427 L 41 428 L 41 429 L 41 430 L 41 431 L 41 432 L 41 433 L 41 434 L 41 435 L 41 436 L 41 437 L 41 438 L 41 439 L 41 440 L 42 441 L 42 442 L 42 443 L 42 444 L 42 445 L 42 446 L 42 447 L 42 448 L 43 449 L 43 450 L 43 451 L 43 452 L 43 453 L 43 454 L 43 455 L 43 456 L 44 457 L 44 458 L 43 459 L 44 460 L 44 461 L 44 462 L 45 463 L 45 464 L 45 465 L 45 466 L 45 467 L 45 468 L 46 469 L 46 470 L 46 471 L 46 472 L 46 473 L 47 474 L 47 475 L 47 476 L 47 477 L 47 478 L 48 479 L 48 480 L 48 481 L 48 482 L 48 483 L 49 484 L 49 485 L 49 486 L 49 487 L 49 488 L 50 489 L 50 490 L 50 491 L 50 492 L 50 493 L 51 494 L 51 495 L 51 496 L 52 497 L 52 498 L 52 499 L 52 500 L 53 501 L 53 502 L 53 503 L 53 504 L 54 505 L 54 506 L 54 507 L 55 508 L 54 509 L 55 510 L 55 511 L 56 512 L 56 513 L 56 514 L 56 515 L 57 516 L 57 517 L 57 518 L 58 519 L 58 520 L 58 521 L 59 522 L 59 523 L 60 524 L 60 525 L 60 526 L 61 527 L 61 528 L 61 529 L 61 530 L 62 531 L 62 532 L 63 533 L 63 534 L 63 535 L 64 536 L 64 537 L 64 538 L 65 539 L 65 540 L 66 541 L 66 542 L 66 543 L 67 544 L 67 545 L 67 546 L 68 547 L 68 548 L 69 549 L 69 550 L 70 551 L 70 552 L 71 553 L 71 554 L 71 555 L 72 556 L 72 557 L 73 558 L 73 559 L 74 560 L 74 561 L 74 562 L 75 563 L 75 564 L 76 565 L 76 566 L 76 567 L 77 568 L 78 569 L 78 570 L 79 571 L 79 572 L 80 573 L 80 574 L 81 575 L 81 576 L 82 577 L 82 578 L 83 579 L 83 580 L 84 581 L 84 582 L 85 583 L 85 584 L 85 585 L 86 585 L 87 586 L 87 587 L 88 588 L 88 589 L 89 590 L 89 591 L 90 592 L 91 593 L 91 594 L 91 595 L 91 596 L 92 596 L 93 597 L 94 598 L 94 599 L 94 600 L 95 601 L 96 602 L 97 603 L 97 604 L 98 605 L 98 606 L 99 607 L 100 608 L 100 609 L 100 610 L 101 611 L 102 612 L 103 613 L 104 614 L 104 615 L 105 616 L 106 617 L 107 618 L 107 619 L 108 620 L 109 621 L 109 622 L 110 623 L 110 624 L 111 624 L 112 625 L 112 626 L 113 627 L 113 628 L 114 629 L 115 630 L 116 631 L 117 632 L 117 633 L 118 634 L 119 635 L 119 636 L 120 636 L 121 637 L 121 638 L 122 639 L 123 640 L 124 641 L 125 642 L 126 643 L 126 644 L 127 645 L 128 646 L 129 647 L 130 648 L 131 649 L 132 650 L 132 651 L 133 652 L 134 653 L 135 654 L 136 655 L 137 656 L 138 657 L 138 658 L 139 658 L 140 659 L 141 660 L 142 661 L 143 662 L 144 663 L 145 664 L 146 665 L 147 666 L 148 667 L 149 668 L 150 669 L 151 670 L 151 671 L 152 672 L 153 672 L 154 673 L 155 674 L 156 675 L 157 676 L 158 677 L 159 678 L 160 679 L 161 680 L 162 680 L 163 681 L 163 682 L 164 683 L 165 683 L 166 684 L 167 685 L 168 686 L 169 686 L 170 687 L 171 688 L 172 689 L 173 690 L 174 691 L 175 691 L 176 692 L 177 693 L 177 694 L 178 694 L 179 695 L 180 696 L 181 696 L 182 697 L 183 698 L 184 699 L 185 699 L 186 700 L 187 701 L 188 701 L 189 702 L 190 703 L 191 704 L 192 704 L 193 705 L 194 706 L 195 706 L 196 707 L 197 708 L 197 709 L 198 708 L 199 709 L 199 710 L 200 711 L 201 711 L 202 711 L 203 712 L 204 713 L 205 713 L 206 714 L 206 715 L 207 715 L 208 715 L 209 716 L 210 716 L 211 717 L 212 718 L 213 718 L 214 719 L 215 720 L 216 720 L 217 721 L 218 721 L 219 722 L 220 722 L 221 723 L 222 724 L 223 724 L 224 725 L 225 725 L 226 726 L 227 726 L 228 727 L 229 727 L 230 728 L 231 729 L 232 729 L 233 730 L 234 730 L 235 731 L 236 732 L 237 732 L 238 733 L 239 733 L 240 733 L 241 734 L 242 734 L 243 735 L 244 735 L 245 736 L 246 736 L 247 737 L 248 737 L 249 738 L 250 739 L 251 738 L 252 739 L 253 739 L 254 740 L 255 740 L 256 741 L 257 741 L 258 742 L 259 742 L 260 742 L 261 743 L 262 743 L 263 744 L 264 744 L 265 745 L 266 745 L 267 746 L 268 746 L 269 746 L 270 747 L 271 747 L 272 747 L 273 748 L 274 749 L 275 749 L 276 749 L 277 749 L 278 750 L 279 751 L 280 750 L 281 751 L 282 751 L 283 752 L 284 752 L 285 752 L 286 752 L 287 753 L 288 753 L 289 753 L 290 754 L 291 754 L 292 755 L 293 755 L 294 755 L 295 755 L 296 756 L 296 757 L 297 756 L 298 757 L 299 757 L 300 757 L 301 757 L 302 758 L 303 758 L 304 758 L 305 758 L 306 759 L 307 759 L 308 759 L 309 760 L 310 760 L 311 760 L 312 760 L 313 761 L 314 761 L 315 761 L 316 761 L 317 761 L 318 762 L 319 762 L 320 762 L 321 762 L 322 763 L 323 763 L 324 763 L 325 763 L 326 764 L 327 764 L 328 764 L 329 764 L 330 765 L 331 765 L 332 765 L 333 765 L 334 765 L 335 766 L 336 766 L 337 766 L 338 766 L 339 766 L 340 767 L 341 767 L 342 767 L 343 767 L 344 767 L 345 767 L 346 767 L 347 768 L 348 768 L 349 768 L 350 768 L 351 768 L 352 768 L 353 769 L 354 769 L 355 769 L 356 769 L 357 770 L 358 769 L 359 769 L 360 770 L 361 770 L 362 770 L 363 770 L 364 770 L 365 770 L 366 770 L 367 770 L 368 771 L 369 771 L 370 771 L 371 771 L 372 771 L 373 772 L 374 772 L 375 771 L 376 771 L 377 772 L 378 772 L 379 772 L 380 772 L 381 772 L 382 772 L 383 772 L 384 772 L 385 772 L 386 772 L 387 772 L 388 772 L 389 772 L 390 772 L 391 772 L 392 772 L 393 773 L 394 773 L 395 773 L 396 773 L 397 773 L 398 773 L 399 773 L 400 773 L 401 773 L 402 773 L 403 773 L 404 773 L 405 773 L 406 773 L 407 773 L 408 773 L 409 773 L 410 773 L 411 773 L 412 773 L 413 773 L 414 773 L 415 773 L 416 773 L 417 773 L 418 773 L 419 773 L 420 773 L 421 773 L 422 773 L 423 773 L 424 773 L 425 773 L 426 773 L 427 773 L 428 773 L 429 773 L 430 773 L 431 773 L 432 773 L 433 773 L 434 773 L 435 773 L 436 773 L 437 772 L 438 772 L 439 772 L 440 772 L 441 773 L 442 772 L 443 772 L 444 772 L 445 772 L 446 772 L 447 772 L 448 772 L 449 772 L 450 772 L 451 772 L 452 772 L 453 772 L 454 771 L 455 771 L 456 771 L 457 771 L 458 771 L 459 771 L 460 771 L 461 771 L 462 770 L 463 770 L 464 770 L 465 770 L 466 770 L 467 770 L 468 770 L 469 770 L 470 770 L 471 769 L 472 769 L 473 769 L 474 769 L 475 769 L 476 768 L 477 768 L 478 768 L 479 768 L 480 768 L 481 768 L 482 768 L 483 767 L 484 767 L 485 767 L 486 767 L 487 767 L 488 767 L 489 767 L 490 766 L 491 766 L 492 766 L 493 765 L 494 765 L 495 765 L 496 765 L 497 765 L 498 765 L 499 764 L 500 765 L 501 764 L 502 764 L 503 763 L 504 763 L 505 763 L 506 763 L 507 762 L 508 762 L 509 762 L 510 762 L 511 761 L 512 761 L 513 761 L 514 761 L 515 760 L 516 760 L 517 760 L 518 760 L 519 759 L 520 759 L 521 759 L 522 758 L 523 758 L 524 758 L 525 758 L 526 757 L 527 757 L 528 757 L 529 756 L 530 756 L 531 756 L 532 755 L 533 755 L 534 755 L 535 755 L 536 754 L 537 754 L 538 753 L 539 753 L 540 753 L 541 752 L 542 752 L 543 752 L 544 751 L 545 751 L 546 751 L 547 750 L 548 751 L 549 750 L 550 749 L 551 749 L 552 749 L 553 748 L 554 748 L 555 747 L 556 747 L 557 747 L 558 746 L 559 746 L 560 745 L 561 745 L 562 744 L 563 744 L 564 744 L 565 744 L 566 743 L 567 742 L 568 742 L 569 742 L 570 741 L 571 741 L 572 740 L 573 740 L 574 739 L 575 739 L 576 738 L 577 738 L 578 738 L 579 737 L 580 737 L 581 736 L 582 736 L 583 735 L 584 735 L 585 734 L 586 734 L 587 733 L 588 733 L 589 732 L 590 732 L 591 731 L 592 731 L 593 730 L 594 731 L 594 730 L 595 729 L 596 729 L 597 728 L 598 728 L 599 727 L 600 727 L 601 726 L 602 726 L 603 725 L 604 725 L 605 724 L 606 723 L 607 722 L 608 722 L 609 721 L 610 721 L 611 720 L 612 720 L 613 719 L 614 718 L 615 718 L 616 717 L 617 717 L 618 716 L 619 715 L 620 715 L 621 714 L 622 713 L 623 713 L 624 712 L 625 711 L 626 711 L 627 710 L 628 709 L 629 709 L 630 708 L 631 708 L 632 707 L 633 706 L 634 705 L 635 705 L 636 704 L 637 703 L 638 703 L 639 702 L 640 701 L 641 701 L 642 700 L 643 699 L 644 698 L 645 698 L 646 697 L 647 696 L 648 695 L 649 694 L 650 694 L 651 693 L 652 692 L 653 691 L 654 690 L 655 690 L 656 690 L 656 689 L 657 688 L 658 687 L 659 686 L 660 686 L 661 685 L 662 684 L 663 683 L 664 682 L 665 682 L 665 681 L 666 680 L 667 680 L 668 679 L 669 678 L 670 677 L 671 676 L 672 675 L 673 674 L 674 673 L 675 672 L 676 672 L 677 671 L 678 670 L 679 669 L 680 668 L 681 667 L 682 666 L 683 665 L 684 664 L 685 663 L 686 662 L 687 661 L 688 660 L 689 660 L 689 659 L 690 658 L 691 658 L 692 657 L 693 657 L 693 656 L 694 655 L 695 654 L 696 653 L 697 652 L 698 651 L 699 650 L 700 650 L 700 649 L 700 648 L 699 647 L 698 647 L 697 646 L 696 645 L 695 644 L 694 643 L 693 642 L 692 641 L 691 640 L 690 640 L 689 639 L 688 638 L 687 637 L 686 636 L 685 635 L 684 634 L 685 633 L 684 633 L 683 633 L 682 632 L 681 631 L 680 630 L 679 629 L 678 628 L 677 627 L 676 626 L 675 625 L 674 624 L 673 623 L 672 622 L 672 621 L 671 620 L 670 620 L 669 619 L 668 618 L 667 617 L 666 616 L 665 615 L 664 614 L 663 613 L 662 612 L 661 611 L 660 610 L 659 609 L 658 608 L 657 607 L 656 606 L 655 605 L 654 604 L 653 603 L 652 602 L 651 601 L 650 600 L 649 599 L 648 598 L 647 597 L 646 596 L 645 595 L 644 594 L 643 593 L 642 592 L 641 591 L 641 590 L 640 590 L 639 589 L 638 588 L 637 587 L 636 586 L 635 585 L 634 584 L 633 583 L 632 582 L 631 581 L 630 580 L 629 580 L 628 579 L 627 578 L 626 577 L 625 576 L 624 575 L 624 574 L 623 574 L 622 573 L 622 572 L 621 572 L 620 571 L 619 570 L 618 569 L 617 568 L 616 567 L 615 566 L 614 565 L 613 564 L 612 563 L 611 562 L 611 561 L 610 561 L 609 560 L 608 559 L 607 558 L 606 557 L 605 556 L 604 555 L 603 554 L 602 553 L 601 552 L 600 551 L 599 550 L 598 549 L 597 548 L 596 547 L 595 546 L 594 545 L 593 544 L 592 543 L 591 542 L 590 541 L 589 540 L 588 539 L 587 538 L 586 537 L 585 536 L 584 535 L 583 534 L 582 534 L 581 535 L 580 536 L 579 537 L 578 537 L 577 538 L 576 539 L 575 540 L 574 541 L 573 542 L 572 543 L 571 543 L 571 544 L 570 545 L 569 545 L 568 546 L 567 547 L 566 548 L 565 549 L 564 549 L 564 550 L 563 551 L 562 551 L 562 552 L 561 553 L 560 553 L 559 554 L 558 555 L 557 556 L 556 557 L 555 558 L 554 559 L 553 560 L 552 560 L 551 561 L 550 562 L 549 563 L 548 564 L 547 564 L 546 565 L 545 566 L 544 567 L 543 568 L 542 568 L 541 569 L 540 570 L 539 570 L 538 571 L 537 572 L 536 572 L 535 573 L 534 574 L 533 574 L 532 575 L 531 576 L 530 577 L 529 577 L 528 578 L 527 578 L 526 579 L 525 580 L 524 580 L 523 581 L 522 581 L 521 582 L 520 582 L 519 583 L 518 584 L 517 584 L 516 585 L 515 585 L 514 586 L 513 586 L 512 587 L 511 587 L 510 587 L 509 588 L 508 589 L 507 589 L 506 590 L 505 590 L 504 591 L 503 591 L 502 591 L 501 592 L 500 592 L 499 593 L 498 593 L 497 593 L 496 594 L 495 594 L 494 595 L 493 595 L 492 596 L 491 596 L 490 596 L 489 597 L 488 597 L 487 597 L 486 598 L 485 598 L 484 598 L 483 599 L 482 599 L 481 599 L 480 600 L 479 600 L 478 600 L 477 601 L 476 601 L 475 601 L 474 602 L 473 602 L 472 602 L 471 602 L 470 603 L 469 603 L 468 603 L 467 603 L 466 604 L 465 603 L 464 604 L 463 604 L 462 605 L 461 605 L 460 605 L 459 605 L 458 605 L 457 606 L 456 606 L 455 606 L 454 606 L 453 606 L 452 607 L 451 607 L 450 607 L 449 607 L 448 607 L 447 607 L 446 607 L 445 608 L 444 608 L 443 608 L 442 607 L 441 608 L 440 608 L 439 608 L 438 608 L 437 608 L 436 609 L 435 609 L 434 609 L 433 609 L 432 609 L 431 609 L 430 609 L 429 609 L 428 609 L 427 609 L 426 609 L 425 609 L 424 609 L 423 609 L 422 609 L 421 609 L 420 609 L 419 610 L 418 610 L 417 610 L 416 610 L 415 610 L 414 610 L 413 610 L 412 610 L 411 610 L 410 610 L 409 610 L 408 609 L 407 609 L 406 609 L 405 609 L 404 609 L 403 609 L 402 609 L 401 609 L 400 609 L 399 609 L 398 609 L 397 609 L 396 609 L 395 609 L 394 609 L 393 609 L 392 608 L 391 608 L 390 608 L 389 608 L 388 608 L 387 608 L 386 608 L 385 608 L 384 608 L 383 608 L 382 608 L 381 607 L 380 607 L 379 607 L 378 607 L 377 607 L 376 607 L 375 606 L 374 606 L 373 606 L 372 606 L 371 606 L 370 606 L 369 605 L 368 605 L 367 605 L 366 605 L 365 605 L 364 604 L 363 604 L 362 604 L 361 604 L 360 604 L 359 603 L 358 603 L 357 603 L 356 602 L 355 602 L 354 602 L 353 602 L 352 601 L 351 601 L 350 601 L 349 601 L 348 600 L 347 600 L 346 600 L 345 599 L 344 599 L 343 599 L 342 599 L 341 598 L 340 598 L 339 598 L 338 597 L 337 597 L 336 596 L 335 596 L 334 595 L 333 595 L 332 595 L 331 595 L 330 594 L 329 594 L 328 593 L 327 593 L 326 592 L 325 592 L 324 591 L 323 591 L 322 591 L 321 590 L 320 590 L 319 589 L 318 589 L 317 588 L 316 588 L 315 587 L 314 587 L 313 586 L 312 586 L 311 585 L 310 585 L 309 584 L 308 584 L 307 583 L 306 583 L 305 582 L 304 582 L 303 581 L 302 580 L 301 580 L 300 579 L 299 579 L 298 578 L 297 577 L 296 577 L 295 576 L 294 575 L 293 575 L 292 574 L 291 573 L 290 572 L 289 572 L 288 571 L 287 571 L 286 570 L 285 569 L 284 568 L 283 568 L 282 567 L 281 566 L 280 565 L 279 564 L 278 564 L 277 563 L 276 562 L 275 561 L 274 560 L 273 560 L 272 559 L 271 558 L 270 557 L 269 556 L 268 555 L 267 554 L 266 553 L 265 552 L 264 551 L 263 550 L 263 549 L 262 549 L 261 548 L 260 547 L 259 546 L 258 545 L 257 544 L 256 543 L 255 542 L 254 541 L 253 540 L 253 539 L 252 538 L 251 537 L 251 536 L 250 536 L 249 535 L 248 534 L 248 533 L 247 532 L 246 531 L 245 530 L 246 529 L 245 528 L 244 528 L 243 527 L 242 526 L 242 525 L 241 524 L 241 523 L 240 523 L 239 522 L 239 521 L 238 520 L 237 519 L 237 518 L 237 517 L 236 517 L 235 516 L 235 515 L 235 514 L 234 513 L 233 512 L 232 511 L 232 510 L 231 509 L 231 508 L 231 507 L 230 506 L 229 505 L 228 504 L 228 503 L 228 502 L 227 501 L 226 500 L 226 499 L 225 498 L 225 497 L 224 496 L 224 495 L 223 494 L 223 493 L 223 492 L 222 491 L 222 490 L 221 489 L 221 488 L 220 487 L 220 486 L 219 485 L 219 484 L 219 483 L 218 482 L 218 481 L 217 480 L 217 479 L 217 478 L 216 477 L 216 476 L 216 475 L 215 474 L 215 473 L 215 472 L 214 471 L 214 470 L 214 469 L 213 468 L 213 467 L 213 466 L 212 465 L 212 464 L 212 463 L 211 462 L 211 461 L 211 460 L 211 459 L 210 458 L 210 457 L 210 456 L 210 455 L 209 454 L 209 453 L 209 452 L 209 451 L 208 450 L 208 449 L 208 448 L 208 447 L 208 446 L 207 445 L 207 444 L 207 443 L 207 442 L 207 441 L 206 440 L 206 439 L 206 438 L 206 437 L 206 436 L 206 435 L 205 434 L 205 433 L 205 432 L 205 431 L 205 430 L 205 429 L 205 428 L 204 427 L 204 426 L 204 425 L 204 424 L 204 423 L 204 422 L 204 421 L 204 420 L 204 419 L 204 418 L 203 417 L 203 416 L 203 415 L 203 414 L 203 413 L 203 412 L 203 411 L 203 410 L 203 409 L 203 408 L 203 407 L 203 406 L 203 405 L 203 404 L 203 403 L 203 402 L 203 401 L 203 400 L 203 399 L 203 398 L 203 397 L 203 396 L 203 395 L 203 394 L 203 393 L 203 392 L 203 391 L 203 390 L 203 389 L 203 388 L 203 387 L 203 386 L 203 385 L 203 384 L 203 383 L 203 382 L 203 381 L 203 380 L 203 379 L 203 378 L 203 377 L 203 376 L 204 375 L 204 374 L 204 373 L 204 372 L 204 371 L 204 370 L 204 369 L 204 368 L 205 367 L 205 366 L 205 365 L 205 364 L 205 363 L 205 362 L 205 361 L 205 360 L 206 359 L 206 358 L 206 357 L 206 356 L 206 355 L 206 354 L 207 353 L 207 352 L 207 351 L 207 350 L 207 349 L 208 348 L 208 347 L 208 346 L 208 345 L 209 344 L 209 343 L 209 342 L 209 341 L 210 340 L 210 339 L 210 338 L 210 337 L 211 336 L 211 335 L 211 334 L 211 333 L 212 332 L 212 331 L 212 330 L 213 329 L 213 328 L 214 327 L 214 326 L 214 325 L 214 324 L 215 323 L 215 322 L 215 321 L 216 320 L 216 319 L 216 318 L 217 317 L 217 316 L 217 315 L 218 314 L 218 313 L 219 312 L 219 311 L 220 310 L 220 309 L 220 308 L 221 307 L 221 306 L 222 305 L 222 304 L 223 303 L 223 302 L 224 301 L 224 300 L 225 299 L 225 298 L 226 297 L 226 296 L 227 295 L 227 294 L 228 293 L 228 292 L 229 291 L 229 290 L 230 289 L 231 288 L 231 287 L 232 286 L 232 285 L 233 284 L 234 283 L 234 282 L 235 281 L 235 280 L 236 279 L 237 278 L 237 277 L 238 276 L 239 275 L 240 274 L 240 273 L 241 272 L 242 271 L 242 270 L 243 269 L 244 268 L 245 267 L 246 266 L 246 265 L 247 264 L 248 263 L 249 262 L 249 261 L 250 260 L 251 259 L 252 258 L 253 258 L 253 257 L 254 256 L 255 255 L 256 254 L 257 253 L 258 252 L 259 251 L 260 250 L 261 249 L 262 248 L 263 247 L 264 246 L 265 245 L 266 244 L 267 243 L 268 242 L 269 242 L 269 241 L 270 240 L 271 239 L 272 240 L 271 239 L 272 238 L 273 238 L 274 237 L 275 236 L 276 235 L 277 235 L 278 234 L 279 233 L 280 232 L 281 231 L 282 231 L 283 230 L 284 229 L 285 228 L 286 228 L 287 227 L 288 226 L 289 226 L 290 225 L 291 224 L 292 224 L 293 223 L 294 223 L 295 222 L 296 221 L 297 221 L 298 220 L 299 219 L 300 219 L 301 218 L 302 218 L 303 218 L 304 217 L 305 216 L 306 216 L 307 215 L 308 215 L 309 214 L 310 213 L 311 213 L 312 212 L 313 212 L 314 211 L 315 211 L 316 210 L 317 210 L 318 210 L 319 209 L 320 209 L 321 208 L 322 208 L 323 207 L 324 207 L 325 207 L 326 206 L 327 206 L 328 205 L 329 205 L 330 205 L 331 205 L 332 204 L 333 205 L 333 204 L 334 203 L 335 203 L 336 203 L 337 202 L 338 202 L 339 202 L 340 201 L 341 201 L 342 201 L 343 200 L 344 201 L 345 200 L 346 200 L 347 199 L 348 199 L 349 199 L 350 198 L 351 198 L 352 198 L 353 198 L 354 198 L 355 197 L 356 197 L 357 197 L 358 196 L 359 196 L 360 196 L 361 196 L 362 195 L 363 195 L 364 195 L 365 195 L 366 195 L 367 195 L 368 194 L 369 194 L 370 194 L 371 194 L 372 194 L 373 194 L 374 193 L 375 193 L 376 194 L 377 193 L 378 193 L 379 193 L 380 192 L 381 192 L 382 192 L 383 192 L 384 192 L 385 192 L 386 192 L 387 192 L 388 192 L 389 191 L 390 191 L 391 191 L 392 191 L 393 191 L 394 191 L 395 191 L 396 191 L 397 191 L 398 191 L 399 191 L 400 191 L 401 191 L 402 191 L 403 191 L 404 190 L 405 190 L 406 190 L 407 190 L 408 190 L 409 190 L 410 190 L 411 190 L 412 190 L 413 190 L 414 190 L 415 190 L 416 190 L 417 190 L 418 190 L 419 190 L 420 190 L 421 190 L 422 191 L 423 191 L 424 191 L 425 191 L 426 191 L 427 191 L 428 191 L 429 191 L 430 191 L 431 191 L 432 191 L 433 191 L 434 191 L 435 191 L 436 191 L 437 191 L 438 191 L 439 192 L 440 192 L 441 192 L 442 192 L 443 192 L 444 192 L 445 192 L 446 192 L 447 193 L 448 193 L 449 193 L 450 193 L 451 193 L 452 193 L 453 193 L 454 193 L 455 194 L 456 194 L 457 194 L 458 194 L 459 195 L 460 195 L 461 195 L 462 195 L 463 195 L 464 196 L 465 196 L 466 196 L 467 196 L 468 197 L 469 197 L 470 197 L 471 197 L 472 197 L 473 198 L 474 198 L 475 198 L 476 199 L 477 199 L 478 199 L 479 200 L 480 200 L 481 200 L 482 201 L 483 201 L 484 202 L 485 202 L 486 202 L 487 202 L 488 203 L 489 203 L 490 203 L 491 204 L 492 204 L 493 204 L 494 205 L 495 205 L 496 205 L 497 206 L 498 206 L 499 207 L 500 207 L 501 208 L 502 208 L 503 208 L 504 209 L 505 210 L 506 210 L 507 210 L 508 211 L 509 211 L 510 212 L 511 212 L 512 213 L 513 213 L 514 214 L 515 214 L 516 215 L 517 215 L 518 216 L 519 216 L 520 217 L 521 218 L 522 218 L 523 218 L 524 219 L 525 219 L 526 220 L 527 221 L 528 221 L 529 222 L 530 223 L 531 223 L 532 224 L 533 224 L 534 225 L 535 226 L 536 226 L 537 227 L 538 228 L 539 228 L 540 229 L 541 230 L 542 230 L 543 231 L 544 232 L 545 233 L 546 234 L 547 234 L 548 235 L 549 236 L 550 236 L 551 237 L 551 238 L 552 238 L 553 239 L 554 240 L 555 240 L 556 241 L 557 242 L 558 243 L 559 244 L 560 245 L 561 245 L 562 246 L 562 247 L 563 247 L 564 248 L 565 249 L 566 250 L 567 251 L 568 251 L 569 252 L 570 253 L 571 254 L 572 255 L 573 256 L 574 257 L 575 258 L 576 258 L 577 259 L 578 260 L 578 261 L 579 261 L 580 262 L 581 263 L 581 264 L 582 264 L 583 265 L 584 264 L 585 263 L 586 262 L 587 261 L 588 260 L 589 259 L 590 258 L 591 257 L 592 256 L 593 255 L 594 254 L 595 253 L 596 252 L 597 251 L 598 250 L 599 249 L 600 248 L 601 247 L 602 246 L 603 245 L 604 244 L 605 243 L 606 242 L 607 241 L 608 240 L 609 239 L 610 238 L 611 237 L 612 236 L 613 235 L 614 234 L 615 233 L 616 232 L 617 231 L 618 230 L 619 229 L 620 228 L 621 227 L 622 226 L 623 225 L 624 224 L 625 223 L 626 222 L 627 221 L 628 220 L 629 219 L 630 218 L 631 217 L 632 216 L 633 215 L 634 215 L 634 214 L 635 213 L 636 212 L 637 211 L 638 210 L 639 209 L 640 208 L 641 207 L 642 206 L 643 205 L 644 204 L 645 203 L 646 202 L 647 201 L 648 200 L 649 199 L 650 198 L 651 197 L 652 196 L 653 195 L 654 194 L 655 193 L 656 192 L 657 191 L 658 190 L 659 189 L 660 188 L 661 187 L 662 186 L 663 185 L 664 184 L 665 183 L 666 182 L 667 181 L 668 180 L 669 179 L 670 178 L 671 177 L 672 176 L 673 175 L 674 174 L 675 173 L 676 172 L 677 171 L 678 170 L 679 169 L 680 168 L 681 167 L 682 166 L 683 165 L 684 164 L 685 163 L 686 162 L 687 161 L 688 160 L 689 159 L 690 158 L 691 157 L 692 156 L 693 155 L 694 154 L 695 153 L 696 152 L 697 151 L 698 150 L 699 149 L 698 148 L 697 147 L 696 146 L 695 145 L 694 144 L 693 143 L 692 142 L 692 141 L 691 141 L 690 140 L 689 140 L 688 139 L 687 138 L 686 137 L 685 136 L 684 135 L 684 134 L 683 134 L 682 133 L 681 132 L 680 131 L 679 130 L 678 129 L 677 128 L 676 127 L 675 127 L 674 126 L 673 125 L 673 124 L 672 124 L 671 123 L 670 122 L 670 121 L 669 121 L 668 120 L 667 119 L 667 118 L 666 118 L 665 118 L 664 117 L 663 116 L 663 115 L 662 115 L 661 114 L 660 113 L 659 112 L 658 112 L 657 111 L 656 110 L 655 109 L 654 108 L 653 107 L 652 107 L 651 106 L 650 105 L 649 104 L 648 104 L 647 103 L 646 102 L 646 101 L 645 101 L 644 101 L 643 100 L 642 99 L 641 98 L 640 98 L 639 97 L 638 96 L 637 95 L 636 95 L 635 94 L 634 94 L 633 93 L 632 92 L 631 91 L 630 91 L 629 90 L 628 89 L 627 89 L 626 88 L 625 87 L 625 86 L 624 87 L 623 86 L 622 86 L 621 85 L 620 84 L 619 84 L 618 83 L 617 82 L 616 82 L 615 81 L 614 80 L 613 80 L 612 79 L 611 79 L 610 78 L 609 78 L 608 77 L 608 76 L 607 76 L 606 76 L 605 75 L 604 75 L 603 74 L 602 74 L 601 73 L 600 72 L 599 72 L 598 71 L 597 71 L 596 70 L 595 70 L 594 69 L 593 68 L 592 68 L 591 67 L 590 67 L 589 67 L 588 66 L 587 66 L 586 65 L 585 65 L 584 64 L 583 64 L 582 63 L 581 62 L 580 62 L 579 62 L 578 61 L 577 61 L 576 60 L 575 60 L 574 60 L 573 59 L 572 59 L 571 58 L 570 58 L 569 57 L 568 56 L 567 56 L 566 56 L 565 56 L 564 55 L 563 55 L 562 54 L 561 54 L 560 54 L 559 53 L 558 53 L 557 52 L 556 52 L 555 52 L 554 51 L 553 51 L 552 50 L 551 50 L 550 50 L 549 49 L 548 49 L 547 49 L 546 48 L 545 48 L 544 48 L 543 47 L 542 47 L 541 47 L 540 46 L 539 46 L 538 45 L 537 45 L 536 44 L 535 44 L 534 44 L 533 44 L 532 43 L 531 43 L 530 43 L 529 42 L 528 42 L 527 42 L 526 41 L 525 41 L 524 41 L 523 41 L 522 40 L 521 40 L 520 40 L 519 40 L 518 39 L 517 39 L 516 39 L 515 39 L 514 38 L 513 38 L 512 38 L 511 38 L 510 37 L 509 37 L 508 37 L 507 36 L 506 35 L 505 36 L 504 36 L 503 36 L 502 35 L 501 35 L 500 35 L 499 35 L 498 34 L 497 34 L 496 34 L 495 34 L 494 34 L 493 34 L 492 33 L 491 33 L 490 33 L 489 33 L 488 32 L 487 32 L 486 32 L 485 32 L 484 32 L 483 32 L 482 31 L 481 31 L 480 31 L 479 31 L 478 31 L 477 31 L 476 30 L 475 30 L 474 30 L 473 30 L 472 30 L 471 29 L 470 29 L 469 29 L 468 29 L 467 29 L 466 29 L 465 29 L 464 29 L 463 29 L 462 28 L 461 28 L 460 28 L 459 28 L 458 28 L 457 28 L 456 28 L 455 28 L 454 28 L 453 27 L 452 27 L 451 27 L 450 27 L 449 27 L 448 27 L 447 27 L 446 27 L 445 27 L 444 27 L 443 27 L 442 26 L 441 27 L 440 27 L 439 26 L 438 26 L 437 26 L 436 26 L 435 26 L 434 26 L 433 26 L 432 26 L 431 26 L 430 26 L 429 26 L 428 26 L 427 26 L 426 26 L 425 26 L 424 26 L 423 26 L 422 26 L 421 26 L 420 26 L 419 26 L 418 26 L 417 26 L 416 26 L 415 26 L 414 26 L 413 26 L 412 26 L 411 26 L 410 26 L 409 26 L 408 26 L 407 26 L 406 26 L 405 26 L 404 26 L 403 26 L 402 26 L 401 26 L 400 26 L 399 26 L 398 26 L 397 26 L 396 26 L 395 26 L 394 26 L 393 26 L 392 27 L 391 27 L 390 27 L 389 27 L 388 27 Z" fill="#17313B" shape-rendering="geometricPrecision"/>
  <circle cx="407.665" cy="398.994" r="124.524" fill="#EF4335"/>
</svg>
