<svg xmlns="http://www.w3.org/2000/svg" viewBox="0 0 122.88 107.25" role="img">
  <path fill="#4989F5" d="M10.43 26.86h99a4.26 4.26 0 0 1 4.26 4.26V103a4.26 4.26 0 0 1-4.26 4.25h-99A4.26 4.26 0 0 1 6.17 103V31.12a4.26 4.26 0 0 1 4.26-4.26Z"/>
  <path fill="#3C4BA6" d="M30.72 40.32h30.72V0H35.32l-4.6 40.32Z"/>
  <path fill="#7BABF7" d="M92.16 40.32H61.44V0h26.12l4.6 40.32Z"/>
  <path fill="#3F51B5" d="M113.73 7.78C112.72 3.18 108.77 0 104.21 0H87.56l4.6 40.32h30.72l-9.15-32.54Z"/>
  <path fill="#7BABF7" d="M9.15 7.78C10.17 3.18 14.11 0 18.68 0h16.64l-4.6 40.32H0L9.15 7.78Z"/>
  <path fill="#709BE0" fill-rule="evenodd" d="M30.78 40.31c0 8.48-6.87 15.35-15.35 15.35S.08 48.79.08 40.31h30.7Z" clip-rule="evenodd"/>
  <path fill="#3C4BA6" fill-rule="evenodd" d="M61.48 40.31c0 8.48-6.87 15.35-15.35 15.35s-15.35-6.87-15.35-15.35h30.7Z" clip-rule="evenodd"/>
  <path fill="#709BE0" fill-rule="evenodd" d="M92.18 40.31c0 8.48-6.87 15.35-15.35 15.35s-15.35-6.87-15.35-15.35h30.7Z" clip-rule="evenodd"/>
  <path fill="#3C4BA6" fill-rule="evenodd" d="M122.88 40.31c0 8.48-6.87 15.35-15.35 15.35s-15.35-6.87-15.35-15.35h30.7Z" clip-rule="evenodd"/>
  <path fill="#fff" d="M107.53 81.9c-.05-.73-.14-1.4-.27-2.25H90.51v7.24h9.69a8.45 8.45 0 0 1-3.56 5.38 11.29 11.29 0 0 1-3.93 1.53c-.68.12-1.38.19-2.08.19-.73 0-1.46-.07-2.17-.21a11.75 11.75 0 0 1-3.96-1.72 11.19 11.19 0 0 1-3.89-4.98l-.17-.47.02-.03a10.73 10.73 0 0 1 2.58-11.1 10.85 10.85 0 0 1 10.55-2.75c1.44.44 2.75 1.22 3.84 2.26l5-5.02a18.23 18.23 0 0 0-11.87-4.63c-1.99 0-3.97.33-5.85.97a18.58 18.58 0 0 0-10.08 8.82 18.04 18.04 0 0 0-1.55 4.48c-1.85 9.21 3.77 18.28 12.84 20.72a18.25 18.25 0 0 0 9.11.1 17.41 17.41 0 0 0 7.29-3.79 17.03 17.03 0 0 0 4.5-7.42c.52-1.84.79-3.75.79-5.66 0-.55-.03-1.11-.07-1.66Z"/>
</svg>
